<mxfile host="app.diagrams.net" modified="2020-10-17T08:34:33.745Z" agent="5.0 (Windows NT 10.0; Win64; x64) AppleWebKit/537.36 (KHTML, like Gecko) Chrome/86.0.4240.75 Safari/537.36" etag="68nHFAdHlWPnhru083-G" version="13.8.0" type="github">
  <diagram id="C5RBs43oDa-KdzZeNtuy" name="Page-1">
    <mxGraphModel dx="1483" dy="829" grid="1" gridSize="10" guides="1" tooltips="1" connect="1" arrows="1" fold="1" page="1" pageScale="1" pageWidth="1200" pageHeight="1600" math="0" shadow="0">
      <root>
        <mxCell id="WIyWlLk6GJQsqaUBKTNV-0" />
        <mxCell id="WIyWlLk6GJQsqaUBKTNV-1" parent="WIyWlLk6GJQsqaUBKTNV-0" />
        <mxCell id="QtLk2SPiXMPk4alxNh0r-10" style="edgeStyle=orthogonalEdgeStyle;rounded=0;orthogonalLoop=1;jettySize=auto;html=1;entryX=0;entryY=0.5;entryDx=0;entryDy=0;" edge="1" parent="WIyWlLk6GJQsqaUBKTNV-1" source="WIyWlLk6GJQsqaUBKTNV-3" target="QtLk2SPiXMPk4alxNh0r-3">
          <mxGeometry relative="1" as="geometry" />
        </mxCell>
        <mxCell id="WIyWlLk6GJQsqaUBKTNV-3" value="판매자" style="rounded=1;whiteSpace=wrap;html=1;fontSize=12;glass=0;strokeWidth=1;shadow=0;" parent="WIyWlLk6GJQsqaUBKTNV-1" vertex="1">
          <mxGeometry x="30" y="70" width="120" height="40" as="geometry" />
        </mxCell>
        <mxCell id="QtLk2SPiXMPk4alxNh0r-9" style="edgeStyle=orthogonalEdgeStyle;rounded=0;orthogonalLoop=1;jettySize=auto;html=1;entryX=0;entryY=0.5;entryDx=0;entryDy=0;" edge="1" parent="WIyWlLk6GJQsqaUBKTNV-1" source="QtLk2SPiXMPk4alxNh0r-1" target="QtLk2SPiXMPk4alxNh0r-7">
          <mxGeometry relative="1" as="geometry" />
        </mxCell>
        <mxCell id="QtLk2SPiXMPk4alxNh0r-1" value="구매자" style="rounded=1;whiteSpace=wrap;html=1;fontSize=12;glass=0;strokeWidth=1;shadow=0;" vertex="1" parent="WIyWlLk6GJQsqaUBKTNV-1">
          <mxGeometry x="30" y="410" width="120" height="40" as="geometry" />
        </mxCell>
        <mxCell id="QtLk2SPiXMPk4alxNh0r-15" style="edgeStyle=orthogonalEdgeStyle;rounded=0;orthogonalLoop=1;jettySize=auto;html=1;entryX=0;entryY=0.5;entryDx=0;entryDy=0;" edge="1" parent="WIyWlLk6GJQsqaUBKTNV-1" source="QtLk2SPiXMPk4alxNh0r-3" target="QtLk2SPiXMPk4alxNh0r-12">
          <mxGeometry relative="1" as="geometry" />
        </mxCell>
        <mxCell id="QtLk2SPiXMPk4alxNh0r-3" value="판매 물품 등록" style="rounded=0;whiteSpace=wrap;html=1;" vertex="1" parent="WIyWlLk6GJQsqaUBKTNV-1">
          <mxGeometry x="220" y="60" width="120" height="60" as="geometry" />
        </mxCell>
        <mxCell id="QtLk2SPiXMPk4alxNh0r-20" style="edgeStyle=orthogonalEdgeStyle;rounded=0;orthogonalLoop=1;jettySize=auto;html=1;entryX=0;entryY=0.5;entryDx=0;entryDy=0;" edge="1" parent="WIyWlLk6GJQsqaUBKTNV-1" source="QtLk2SPiXMPk4alxNh0r-7" target="QtLk2SPiXMPk4alxNh0r-19">
          <mxGeometry relative="1" as="geometry" />
        </mxCell>
        <mxCell id="QtLk2SPiXMPk4alxNh0r-28" style="edgeStyle=orthogonalEdgeStyle;rounded=0;orthogonalLoop=1;jettySize=auto;html=1;" edge="1" parent="WIyWlLk6GJQsqaUBKTNV-1" source="QtLk2SPiXMPk4alxNh0r-7">
          <mxGeometry relative="1" as="geometry">
            <mxPoint x="280" y="129.9999999999999" as="targetPoint" />
          </mxGeometry>
        </mxCell>
        <mxCell id="QtLk2SPiXMPk4alxNh0r-7" value="구매 물품 탐색" style="rounded=0;whiteSpace=wrap;html=1;" vertex="1" parent="WIyWlLk6GJQsqaUBKTNV-1">
          <mxGeometry x="220" y="400" width="120" height="60" as="geometry" />
        </mxCell>
        <mxCell id="QtLk2SPiXMPk4alxNh0r-17" style="edgeStyle=orthogonalEdgeStyle;rounded=0;orthogonalLoop=1;jettySize=auto;html=1;entryX=0;entryY=0.5;entryDx=0;entryDy=0;" edge="1" parent="WIyWlLk6GJQsqaUBKTNV-1" source="QtLk2SPiXMPk4alxNh0r-12" target="QtLk2SPiXMPk4alxNh0r-16">
          <mxGeometry relative="1" as="geometry" />
        </mxCell>
        <mxCell id="QtLk2SPiXMPk4alxNh0r-12" value="구매자와 거래 협의" style="rounded=0;whiteSpace=wrap;html=1;" vertex="1" parent="WIyWlLk6GJQsqaUBKTNV-1">
          <mxGeometry x="410" y="60" width="120" height="60" as="geometry" />
        </mxCell>
        <mxCell id="QtLk2SPiXMPk4alxNh0r-23" style="edgeStyle=orthogonalEdgeStyle;rounded=0;orthogonalLoop=1;jettySize=auto;html=1;entryX=0.5;entryY=0;entryDx=0;entryDy=0;" edge="1" parent="WIyWlLk6GJQsqaUBKTNV-1" source="QtLk2SPiXMPk4alxNh0r-16" target="QtLk2SPiXMPk4alxNh0r-24">
          <mxGeometry relative="1" as="geometry">
            <mxPoint x="660" y="550" as="targetPoint" />
          </mxGeometry>
        </mxCell>
        <mxCell id="QtLk2SPiXMPk4alxNh0r-26" style="edgeStyle=orthogonalEdgeStyle;rounded=0;orthogonalLoop=1;jettySize=auto;html=1;entryX=0;entryY=0.5;entryDx=0;entryDy=0;" edge="1" parent="WIyWlLk6GJQsqaUBKTNV-1" source="QtLk2SPiXMPk4alxNh0r-16" target="QtLk2SPiXMPk4alxNh0r-18">
          <mxGeometry relative="1" as="geometry">
            <mxPoint x="800" y="89.99999999999989" as="targetPoint" />
          </mxGeometry>
        </mxCell>
        <mxCell id="QtLk2SPiXMPk4alxNh0r-16" value="당근함 위치 선정" style="rounded=0;whiteSpace=wrap;html=1;" vertex="1" parent="WIyWlLk6GJQsqaUBKTNV-1">
          <mxGeometry x="600" y="60" width="120" height="60" as="geometry" />
        </mxCell>
        <mxCell id="QtLk2SPiXMPk4alxNh0r-31" style="edgeStyle=orthogonalEdgeStyle;rounded=0;orthogonalLoop=1;jettySize=auto;html=1;entryX=0.5;entryY=0;entryDx=0;entryDy=0;" edge="1" parent="WIyWlLk6GJQsqaUBKTNV-1" source="QtLk2SPiXMPk4alxNh0r-18" target="QtLk2SPiXMPk4alxNh0r-30">
          <mxGeometry relative="1" as="geometry">
            <mxPoint x="870" y="270" as="targetPoint" />
          </mxGeometry>
        </mxCell>
        <mxCell id="QtLk2SPiXMPk4alxNh0r-42" style="edgeStyle=orthogonalEdgeStyle;rounded=0;orthogonalLoop=1;jettySize=auto;html=1;entryX=0;entryY=0.5;entryDx=0;entryDy=0;" edge="1" parent="WIyWlLk6GJQsqaUBKTNV-1" source="QtLk2SPiXMPk4alxNh0r-18" target="QtLk2SPiXMPk4alxNh0r-34">
          <mxGeometry relative="1" as="geometry" />
        </mxCell>
        <mxCell id="QtLk2SPiXMPk4alxNh0r-18" value="당근함에 물품 보관" style="rounded=0;whiteSpace=wrap;html=1;" vertex="1" parent="WIyWlLk6GJQsqaUBKTNV-1">
          <mxGeometry x="810" y="60" width="120" height="60" as="geometry" />
        </mxCell>
        <mxCell id="QtLk2SPiXMPk4alxNh0r-25" style="edgeStyle=orthogonalEdgeStyle;rounded=0;orthogonalLoop=1;jettySize=auto;html=1;entryX=0;entryY=0.5;entryDx=0;entryDy=0;" edge="1" parent="WIyWlLk6GJQsqaUBKTNV-1" source="QtLk2SPiXMPk4alxNh0r-19" target="QtLk2SPiXMPk4alxNh0r-24">
          <mxGeometry relative="1" as="geometry" />
        </mxCell>
        <mxCell id="QtLk2SPiXMPk4alxNh0r-19" value="판매자와 거래 협의" style="rounded=0;whiteSpace=wrap;html=1;" vertex="1" parent="WIyWlLk6GJQsqaUBKTNV-1">
          <mxGeometry x="410" y="400" width="120" height="60" as="geometry" />
        </mxCell>
        <mxCell id="QtLk2SPiXMPk4alxNh0r-21" value="" style="endArrow=classic;startArrow=classic;html=1;entryX=0.5;entryY=1;entryDx=0;entryDy=0;exitX=0.5;exitY=0;exitDx=0;exitDy=0;" edge="1" parent="WIyWlLk6GJQsqaUBKTNV-1" source="QtLk2SPiXMPk4alxNh0r-19" target="QtLk2SPiXMPk4alxNh0r-12">
          <mxGeometry width="50" height="50" relative="1" as="geometry">
            <mxPoint x="530" y="400" as="sourcePoint" />
            <mxPoint x="580" y="350" as="targetPoint" />
          </mxGeometry>
        </mxCell>
        <mxCell id="QtLk2SPiXMPk4alxNh0r-33" style="edgeStyle=orthogonalEdgeStyle;rounded=0;orthogonalLoop=1;jettySize=auto;html=1;entryX=0;entryY=0.5;entryDx=0;entryDy=0;" edge="1" parent="WIyWlLk6GJQsqaUBKTNV-1" source="QtLk2SPiXMPk4alxNh0r-24" target="QtLk2SPiXMPk4alxNh0r-30">
          <mxGeometry relative="1" as="geometry" />
        </mxCell>
        <mxCell id="QtLk2SPiXMPk4alxNh0r-24" value="선정 위치 파악" style="rounded=0;whiteSpace=wrap;html=1;" vertex="1" parent="WIyWlLk6GJQsqaUBKTNV-1">
          <mxGeometry x="600" y="400" width="120" height="60" as="geometry" />
        </mxCell>
        <mxCell id="QtLk2SPiXMPk4alxNh0r-36" style="edgeStyle=orthogonalEdgeStyle;rounded=0;orthogonalLoop=1;jettySize=auto;html=1;entryX=0;entryY=0.5;entryDx=0;entryDy=0;" edge="1" parent="WIyWlLk6GJQsqaUBKTNV-1" source="QtLk2SPiXMPk4alxNh0r-30" target="QtLk2SPiXMPk4alxNh0r-35">
          <mxGeometry relative="1" as="geometry" />
        </mxCell>
        <mxCell id="QtLk2SPiXMPk4alxNh0r-30" value="보관 위치 파악" style="rounded=0;whiteSpace=wrap;html=1;" vertex="1" parent="WIyWlLk6GJQsqaUBKTNV-1">
          <mxGeometry x="810" y="400" width="120" height="60" as="geometry" />
        </mxCell>
        <mxCell id="QtLk2SPiXMPk4alxNh0r-34" value="결제대금 수령" style="rounded=0;whiteSpace=wrap;html=1;" vertex="1" parent="WIyWlLk6GJQsqaUBKTNV-1">
          <mxGeometry x="1000" y="60" width="120" height="60" as="geometry" />
        </mxCell>
        <mxCell id="QtLk2SPiXMPk4alxNh0r-37" style="edgeStyle=orthogonalEdgeStyle;rounded=0;orthogonalLoop=1;jettySize=auto;html=1;entryX=0.5;entryY=1;entryDx=0;entryDy=0;" edge="1" parent="WIyWlLk6GJQsqaUBKTNV-1" source="QtLk2SPiXMPk4alxNh0r-35" target="QtLk2SPiXMPk4alxNh0r-34">
          <mxGeometry relative="1" as="geometry" />
        </mxCell>
        <mxCell id="QtLk2SPiXMPk4alxNh0r-35" value="보관함 방문,&amp;nbsp;&lt;br&gt;거래대금 결제" style="rounded=0;whiteSpace=wrap;html=1;" vertex="1" parent="WIyWlLk6GJQsqaUBKTNV-1">
          <mxGeometry x="1000" y="400" width="120" height="60" as="geometry" />
        </mxCell>
        <mxCell id="QtLk2SPiXMPk4alxNh0r-38" value="&lt;span style=&quot;color: rgb(0, 0, 0); font-family: helvetica; font-size: 12px; font-style: normal; font-weight: 400; letter-spacing: normal; text-align: center; text-indent: 0px; text-transform: none; word-spacing: 0px; background-color: rgb(248, 249, 250); display: inline; float: none;&quot;&gt;구매 의사 표시&lt;/span&gt;" style="text;whiteSpace=wrap;html=1;" vertex="1" parent="WIyWlLk6GJQsqaUBKTNV-1">
          <mxGeometry x="240" y="230" width="100" height="30" as="geometry" />
        </mxCell>
        <mxCell id="QtLk2SPiXMPk4alxNh0r-39" value="&lt;span style=&quot;color: rgb(0 , 0 , 0) ; font-family: &amp;#34;helvetica&amp;#34; ; font-size: 12px ; font-style: normal ; font-weight: 400 ; letter-spacing: normal ; text-align: center ; text-indent: 0px ; text-transform: none ; word-spacing: 0px ; background-color: rgb(248 , 249 , 250) ; display: inline ; float: none&quot;&gt;선정 햡의&lt;/span&gt;" style="text;whiteSpace=wrap;html=1;" vertex="1" parent="WIyWlLk6GJQsqaUBKTNV-1">
          <mxGeometry x="630" y="230" width="80" height="30" as="geometry" />
        </mxCell>
        <mxCell id="QtLk2SPiXMPk4alxNh0r-40" value="&lt;span style=&quot;color: rgb(0, 0, 0); font-family: helvetica; font-size: 12px; font-style: normal; font-weight: 400; letter-spacing: normal; text-align: center; text-indent: 0px; text-transform: none; word-spacing: 0px; background-color: rgb(248, 249, 250); display: inline; float: none;&quot;&gt;보관 정보 공유&lt;/span&gt;" style="text;whiteSpace=wrap;html=1;" vertex="1" parent="WIyWlLk6GJQsqaUBKTNV-1">
          <mxGeometry x="820" y="230" width="100" height="30" as="geometry" />
        </mxCell>
        <mxCell id="QtLk2SPiXMPk4alxNh0r-41" value="당근함&lt;br&gt;결제 대금 처리" style="rhombus;whiteSpace=wrap;html=1;" vertex="1" parent="WIyWlLk6GJQsqaUBKTNV-1">
          <mxGeometry x="995" y="200" width="130" height="110" as="geometry" />
        </mxCell>
      </root>
    </mxGraphModel>
  </diagram>
</mxfile>
